<svg xmlns="http://www.w3.org/2000/svg" xmlns:xlink="http://www.w3.org/1999/xlink" width="42.656" height="44.024" viewBox="0 0 42.656 44.024">
  <defs>
    <linearGradient id="linear-gradient" y1="-0.189" x2="1.176" y2="1" gradientUnits="objectBoundingBox">
      <stop offset="0" stop-color="#54a2f2"/>
      <stop offset="1" stop-color="#5388e9"/>
    </linearGradient>
  </defs>
  <g id="Group_55169" data-name="Group 55169" transform="translate(461.81 212.124)">
    <path id="Path_49893" data-name="Path 49893" d="M-407.631-97.879c.392-.607.392-.608-.206-1.057l-7.2-5.4a2.023,2.023,0,0,1-.435-3.274q2.186-2.82,4.38-5.635c.509-.656.474-.96-.148-1.492q-2.475-2.118-4.948-4.238c-.607-.519-.987-.472-1.458.185-1.079,1.505-2.161,3.008-3.225,4.523a.668.668,0,0,1-.627.317c-3.162-.009-6.325-.014-9.487,0-.388,0-.47-.112-.463-.476.02-1.066,0-1.067,1.061-1.067,2.364,0,4.728-.01,7.092.008a1.185,1.185,0,0,0,1.1-.6q4.634-6.982,9.291-13.949a2.829,2.829,0,0,1,3.552-1.381c2.414.6,4.825,1.212,7.241,1.8.316.077.444.165.312.5-.143.365-.056.928-.366,1.081-.26.129-.718-.13-1.085-.229q-3.162-.857-6.323-1.719c-.613-.166-.805-.091-1.164.445q-1.409,2.11-2.813,4.224c-.391.59-.346.875.193,1.36q2.867,2.579,5.733,5.161a4.038,4.038,0,0,1,.471,5.819c-1.569,1.976-3.15,3.942-4.724,5.913-.573.717-.544.967.149,1.6q4.082,3.737,8.16,7.477a1.044,1.044,0,0,1,.091.108Z" transform="translate(-26.468 -70.234)" fill="url(#linear-gradient)"/>
    <path id="Path_49894" data-name="Path 49894" d="M-225.427,16.207c-1.489-.957-2.981-1.908-4.466-2.871-3.147-2.04-6.286-4.09-9.438-6.123-.332-.214-.39-.343-.1-.662A6.186,6.186,0,0,0-238.016,4.3c.1-.319.2-.269.41-.1q2.6,2,5.208,3.99l5.93,4.543c.586.448.587.447,1.047-.084Q-225.424,14.425-225.427,16.207Z" transform="translate(-193.732 -188.497)" fill="url(#linear-gradient)"/>
    <path id="Path_49895" data-name="Path 49895" d="M-461.773-193.707c0-2.011-.013-4.021-.014-6.031,0-3.942.006-7.884-.011-11.825,0-.387.112-.465.472-.458,1.07.022,1.07.006,1.07,1.094,0,.351,0,.7,0,1.053.008.652.279.926.937.927q3.734.005,7.468,0c1.117,0,2.233-.013,3.35-.02.179.122.115.31.128.477.069.868-.115,1.727-.1,2.593-1.366.077-1.365.077-2.119-1.054-.168-.252-.341-.5-.5-.756a.829.829,0,0,0-.777-.465.834.834,0,0,0-.721.608q-.667,1.584-1.356,3.158c-.044.1-.033.264-.226.288-.489-1.136-.975-2.275-1.47-3.41-.337-.774-.874-.869-1.48-.268-.5.494-1.013.976-1.483,1.5a1.058,1.058,0,0,1-1.036.42c-.472-.085-.656.06-.628.586.05.947.016.914.981.961a1.655,1.655,0,0,0,1.508-.626c.315-.395.668-.759,1.06-1.2.652,1.516,1.241,2.869,1.814,4.229.155.366.358.648.791.644s.63-.292.784-.656c.536-1.273,1.089-2.54,1.658-3.863.228.341.443.636.63.947a.973.973,0,0,0,.948.517c.414-.017.829.006,1.243.011a12.269,12.269,0,0,1-.75,2.153,14.947,14.947,0,0,1-4.233,5.483q-2.635.008-5.269.015c-1.166,0-1.153,0-1.16,1.15,0,.313.081.4.393.392,1.149-.015,2.3,0,3.448.007A11.907,11.907,0,0,1-461.773-193.707Zm4.92-4.5h2.347c1.165,0,1.153,0,1.16-1.15,0-.313-.08-.395-.393-.392-1.788.015-3.577.008-5.365.008-1.182,0-1.173,0-1.159,1.2,0,.27.073.347.344.343C-458.9-198.221-457.875-198.211-456.853-198.211Z" transform="translate(-0.01 -0.088)" fill="url(#linear-gradient)"/>
    <path id="Path_49896" data-name="Path 49896" d="M-461.783-193.8a11.906,11.906,0,0,0,5.351-1.422c.68,0,1.361-.013,2.042-.014,1.027,0,1.009,0,1.036-1.021.01-.383-.051-.605-.489-.529a14.947,14.947,0,0,0,4.233-5.483,12.266,12.266,0,0,0,.75-2.153c.864-.045.864-.045.864-.949a.535.535,0,0,1,0-.094c.072-.39-.059-.591-.483-.524-.017-.866.167-1.725.1-2.593-.013-.167.051-.355-.128-.477a.965.965,0,0,0,.518-.986c-.023-.59,0-1.181-.011-1.771-.006-.231.067-.286.294-.3,1.243-.049,1.243-.056,1.243,1.161,0,3.033,0,6.066.005,9.1,0,.319-.017.474-.428.518a3.793,3.793,0,0,0-3.4,3.753,14.544,14.544,0,0,0,.033,2.056,3.788,3.788,0,0,0,3.472,3.334c.277.028.326.113.329.365.013,1.19.021,1.19-1.167,1.19-4.565,0-9.13-.006-13.694.01-.4,0-.506-.1-.489-.493C-461.771-192.008-461.788-192.9-461.783-193.8Zm4.928,1.63h2.346c1.161,0,1.147,0,1.154-1.158,0-.328-.105-.385-.4-.383-1.788.013-3.576.006-5.363.006-1.161,0-1.147,0-1.154,1.158,0,.328.1.388.4.383C-458.867-192.176-457.861-192.166-456.855-192.166Z" transform="translate(0 0)" fill="url(#linear-gradient)"/>
    <path id="Path_49897" data-name="Path 49897" d="M-355.389-112.828a5.091,5.091,0,0,1-.067,1.1,2.3,2.3,0,0,1-2.42,1.749,2.292,2.292,0,0,1-2.076-2.149c-.03-.589-.028-1.183,0-1.772a2.29,2.29,0,0,1,2.292-2.181,2.3,2.3,0,0,1,2.27,2.155C-355.372-113.606-355.389-113.285-355.389-112.828Z" transform="translate(-88.792 -83.742)" fill="url(#linear-gradient)"/>
  </g>
</svg>
