<svg xmlns="http://www.w3.org/2000/svg" xmlns:xlink="http://www.w3.org/1999/xlink" width="44.989" height="37.557" viewBox="0 0 44.989 37.557">
  <defs>
    <linearGradient id="linear-gradient" x2="0.85" y2="2.236" gradientUnits="objectBoundingBox">
      <stop offset="0" stop-color="#53b2f7"/>
      <stop offset="1" stop-color="#5484e8"/>
    </linearGradient>
  </defs>
  <g id="Group_55170" data-name="Group 55170" transform="translate(903.354 258.639)">
    <path id="Path_49898" data-name="Path 49898" d="M-858.365-254.107c-1.166.7-2.325,1.408-3.5,2.083a.653.653,0,0,0-.383.692,13.474,13.474,0,0,1,0,1.537c-.022.364.1.51.452.641a16.41,16.41,0,0,1,2.227,1.005c.562.313.537.553,0,.925a10.177,10.177,0,0,1-3.161,1.266,19.972,19.972,0,0,1-2.267.5,3.181,3.181,0,0,1-1.071-.129,54,54,0,0,0-9.019-1.027c-3.276-.113-6.558-.156-9.835-.1a62.485,62.485,0,0,0-12.252,1.257,2.873,2.873,0,0,1-1.325-.215c-1.3-.391-2.588-.809-3.873-1.244a2.414,2.414,0,0,1-.7-.446c-.357-.29-.379-.479.015-.71a14.474,14.474,0,0,1,2.036-1c.883-.344.9-.306.9-1.231q0-2.834,0-5.667c0-.976.509-1.265,1.351-.773q1.762,1.029,3.522,2.062c.624.366.622.481-.016.862-1.03.614-2.058,1.234-3.1,1.836a.546.546,0,0,0-.312.559c.02.539.006,1.079.006,1.685a88.576,88.576,0,0,1,16.73-1.509c.009-.194.022-.348.022-.5q0-2.921,0-5.843c0-.376,0-.747.385-.957a.931.931,0,0,1,.983.153c1.2.706,2.4,1.4,3.6,2.109.5.295.505.454.013.748-1.068.638-2.135,1.276-3.21,1.9a.516.516,0,0,0-.3.52c.017.6.005,1.2.005,1.867a87.882,87.882,0,0,1,16.731,1.545v-.5q0-2.878,0-5.755c0-.363.022-.712.38-.92a.9.9,0,0,1,.981.139q2,1.19,4,2.371Z" transform="translate(0)" fill="url(#linear-gradient)"/>
    <path id="Path_49899" data-name="Path 49899" d="M-840.184,71.4c-.148,1.127-.289,2.212-.434,3.3-.223,1.668-.451,3.335-.672,5a1.817,1.817,0,0,1-.732,1.29A13.754,13.754,0,0,1-847.2,83.3c-2,.48-4.04.8-6.143,1.2v-.6q0-3.186,0-6.371c0-1.053-.443-1.5-1.492-1.5q-6.174,0-12.347,0c-1.074,0-1.506.44-1.506,1.529q0,3.142,0,6.283V84.4c-1.214-.185-2.383-.335-3.541-.545a21.864,21.864,0,0,1-6.134-1.91,8.731,8.731,0,0,1-1.628-1.025,1.882,1.882,0,0,1-.642-1.043c-.421-2.763-.783-5.534-1.162-8.3a.657.657,0,0,1,.01-.134c.928.253,1.844.528,2.772.751a55.129,55.129,0,0,0,8.11,1.216,113.526,113.526,0,0,0,14.046.341,69.932,69.932,0,0,0,14.579-1.731C-841.6,71.851-840.934,71.627-840.184,71.4Z" transform="translate(-20.241 -309.862)" fill="url(#linear-gradient)"/>
    <path id="Path_49900" data-name="Path 49900" d="M-854.078-44.648c-.118.9-.225,1.734-.338,2.571-.1.754-.24,1.5-.3,2.261a.771.771,0,0,1-.587.746,27.268,27.268,0,0,1-5.6,1.406,98.782,98.782,0,0,1-17.554,1.016,92.007,92.007,0,0,1-9.94-.666,34.564,34.564,0,0,1-8.035-1.761.744.744,0,0,1-.546-.68c-.2-1.538-.417-3.073-.628-4.609a2.551,2.551,0,0,1,0-.3,23.118,23.118,0,0,0,5.363,1.569,70.861,70.861,0,0,0,8.667,1.033,115.6,115.6,0,0,0,11.983.174,68.732,68.732,0,0,0,14.568-1.761c.874-.226,1.717-.572,2.573-.864C-854.349-44.548-854.246-44.587-854.078-44.648Z" transform="translate(-5.39 -200.892)" fill="url(#linear-gradient)"/>
    <path id="Path_49901" data-name="Path 49901" d="M-687.394,171.438h1.778v6.237h8.83v-6.227h1.765c.007.152.02.307.02.461,0,2.5.008,5.008-.008,7.512a.5.5,0,0,0,.427.575c.6.174,1.19.4,1.792.583a.851.851,0,0,1,.674.9c.022,1.168-.021,1.22-1.178,1.22h-16.078c-.778,0-.892-.114-.894-.885,0-.944.056-1.024.937-1.315.514-.17,1.021-.359,1.541-.506a.471.471,0,0,0,.4-.547c-.015-2.5-.008-5.008-.008-7.512Z" transform="translate(-200.058 -403.779)" fill="url(#linear-gradient)"/>
    <path id="Path_49902" data-name="Path 49902" d="M-719.816-45.708a105.1,105.1,0,0,1-24.7,0A100.091,100.091,0,0,1-719.816-45.708Z" transform="translate(-149.126 -199.192)" fill="url(#linear-gradient)"/>
  </g>
</svg>
