<svg xmlns="http://www.w3.org/2000/svg" xmlns:xlink="http://www.w3.org/1999/xlink" width="49.695" height="45.991" viewBox="0 0 49.695 45.991">
  <defs>
    <linearGradient id="linear-gradient" x2="0.76" y2="1" gradientUnits="objectBoundingBox">
      <stop offset="0" stop-color="#54befc"/>
      <stop offset="1" stop-color="#537be5"/>
    </linearGradient>
  </defs>
  <g id="Group_55164" data-name="Group 55164" transform="translate(-159.24 -158.336)">
    <path id="Path_49883" data-name="Path 49883" d="M266.018,184.126c2.268-.126,4.533-.322,6.8-.356a2.465,2.465,0,0,1,2.57,3.076,2.4,2.4,0,0,1-2.23,2.153c-3.273.268-6.548.526-9.827.715-1.863.107-2.887-.909-2.965-2.8-.037-.9-.006-1.8-.006-3.011l-4.5,4.1c.294.331.536.624.8.9q3.917,4.045,7.843,8.08a2.855,2.855,0,0,1,.922,3.12,2.714,2.714,0,0,1-2.568,1.828c-5.137.49-10.272,1.016-15.414,1.441-2.3.19-3.605-1.5-2.916-3.571a2.4,2.4,0,0,1,2.305-1.649q4.418-.436,8.834-.88c.39-.039.779-.09,1.328-.154a8.814,8.814,0,0,0-.564-.732q-4.2-4.3-8.4-8.589c-1.369-1.389-1.549-2.556-.292-4.085,1.164-1.417,2.508-2.689,3.8-4,1.647-1.669,3.322-3.31,5.075-5.052l-3.36-3.172c-1.534,1.388-3,2.765-4.526,4.08a2.537,2.537,0,0,1-3.841-.123,2.413,2.413,0,0,1,0-3.505q3.444-3.29,7.027-6.432c1.142-1,2.5-.779,3.767.465,1.159,1.137,2.262,2.331,3.393,3.5,1.81,1.864,3.61,3.739,5.44,5.584a5.017,5.017,0,0,1,1.527,4C265.953,180.7,266.018,182.352,266.018,184.126Z" transform="translate(-66.498 -5.126)" fill="url(#linear-gradient)"/>
    <path id="Path_49884" data-name="Path 49884" d="M178.219,265.208l3.435,4.28c-1.749,1.7-3.6,3.45-5.407,5.252-4.032,4.026-8.026,8.09-12.073,12.1a4.555,4.555,0,0,1-1.9,1.135,2.462,2.462,0,0,1-2.7-1.367,2.492,2.492,0,0,1,.366-3.009c.92-1.014,1.908-1.967,2.874-2.939q7.4-7.447,14.8-14.889C177.867,265.521,178.133,265.289,178.219,265.208Z" transform="translate(0 -83.717)" fill="url(#linear-gradient)"/>
    <path id="Path_49885" data-name="Path 49885" d="M340.283,158.336a5.209,5.209,0,1,1-5.274,5.07A5.2,5.2,0,0,1,340.283,158.336Z" transform="translate(-137.687)" fill="url(#linear-gradient)"/>
  </g>
</svg>
