<svg xmlns="http://www.w3.org/2000/svg" xmlns:xlink="http://www.w3.org/1999/xlink" width="33.302" height="39.654" viewBox="0 0 33.302 39.654">
  <defs>
    <linearGradient id="linear-gradient" x1="0.201" y1="-0.824" x2="1" y2="1" gradientUnits="objectBoundingBox">
      <stop offset="0" stop-color="#54b4f8"/>
      <stop offset="1" stop-color="#5381e7"/>
    </linearGradient>
  </defs>
  <g id="Group_55168" data-name="Group 55168" transform="translate(408.114 18.878)">
    <path id="Path_49886" data-name="Path 49886" d="M-391.345,115.232c.024.422.063.854.07,1.286s.1.7.637.7c.476-.007.68-.159.7-.64.051-1.042.16-2.082.192-3.124a1.4,1.4,0,0,0-.254-.974c-.633-.572-.32-1.036,0-1.581,1.836-3.156,3.671-6.313,5.464-9.493a.929.929,0,0,1,1.288-.545,11.88,11.88,0,0,1,8.363,12.556c-.006.053-.052.1-.138.257-1.614,0-3.289.015-4.962-.026-.151,0-.4-.363-.418-.569-.051-.75.037-1.513-.049-2.257-.037-.315-.345-.812-.584-.846-.54-.077-.675.39-.674.881.006,2.551,0,5.1,0,7.653v1.02h-19.5v-.934q0-3.783,0-7.566c0-.495.062-1.1-.655-1.079-.672.024-.654.61-.651,1.118,0,.834,0,1.668,0,2.556h-5.528a11.867,11.867,0,0,1,1-6.274,11.75,11.75,0,0,1,7.423-6.5.826.826,0,0,1,1.172.45c1.882,3.33,3.814,6.632,5.707,9.957a.961.961,0,0,1,.061.811c-.932,1.472-.575,2.534,1.072,3.04A2.536,2.536,0,0,1-391.345,115.232Z" transform="translate(0 -98.821)" fill="url(#linear-gradient)"/>
    <path id="Path_49887" data-name="Path 49887" d="M-358.861,42.169a12.706,12.706,0,0,0,13.046-.035,12.414,12.414,0,0,0,1.085,1.169,2.31,2.31,0,0,1-.2,3.726,2.944,2.944,0,0,0-.974,1.1c-1.258,2.649-3.2,4.33-6.23,4.408a6.887,6.887,0,0,1-6.311-4.426,2.6,2.6,0,0,0-.91-1.046,2.354,2.354,0,0,1-.428-3.676A10.577,10.577,0,0,0-358.861,42.169Z" transform="translate(-39.341 -50.394)" fill="url(#linear-gradient)"/>
    <path id="Path_49888" data-name="Path 49888" d="M-341.492-11.608a26.239,26.239,0,0,0-14.617.155,5.082,5.082,0,0,1,1.39-4.351,7.661,7.661,0,0,1,3.909-2.141,2.092,2.092,0,0,0,.854-.487,1.711,1.711,0,0,1,2.287-.015,2.332,2.332,0,0,0,.937.5,7.269,7.269,0,0,1,4.119,2.423A5.137,5.137,0,0,1-341.492-11.608Z" transform="translate(-42.907 0)" fill="url(#linear-gradient)"/>
    <path id="Path_49889" data-name="Path 49889" d="M-346.024,98a3.878,3.878,0,0,1,1.155.423,6.791,6.791,0,0,0,9.137,0,4.075,4.075,0,0,1,1.1-.437l.2.257-5.868,10.2-5.876-10.185Z" transform="translate(-51.162 -96.523)" fill="url(#linear-gradient)"/>
    <path id="Path_49890" data-name="Path 49890" d="M-339.332,26c-3.906,3.265-10.255,3.292-13.925.1A25.531,25.531,0,0,1-339.332,26Z" transform="translate(-45.31 -36.312)" fill="url(#linear-gradient)"/>
    <path id="Path_49891" data-name="Path 49891" d="M-402.238,183.24v4.424h-5.47V183.24Z" transform="translate(-0.335 -166.943)" fill="url(#linear-gradient)"/>
    <path id="Path_49892" data-name="Path 49892" d="M-248.56,183.11h5.48c0,1.381.019,2.7-.025,4.022-.006.164-.343.451-.531.455-1.615.037-3.232.021-4.925.021Z" transform="translate(-131.786 -166.835)" fill="url(#linear-gradient)"/>
  </g>
</svg>
